<svg xmlns="http://www.w3.org/2000/svg" viewBox="306 285 1431 1431">
  <g fill="#ff4800">
    <path d="M1178.88,1309.51c-10.02,0-19.5-4.85-25.36-12.98-5.86-8.13-7.47-18.66-4.3-28.16l192.29-576.86c7.53-22.59,3.74-47.42-10.18-66.74-13.92-19.32-36.28-30.76-60.1-30.76h-370.61c-10.02,0-19.5-4.85-25.36-12.98-5.86-8.13-7.47-18.66-4.3-28.16l79.5-238.5c4.26-12.79,16.18-21.38,29.66-21.38h477.01c10.02,0,19.5,4.85,25.36,12.98,5.86,8.13,7.46,18.66,4.3,28.16l-33.28,99.85c-7.53,22.59-3.74,47.42,10.18,66.74,13.92,19.32,36.28,30.76,60.1,30.76h132.1c10.02,0,19.5,4.85,25.36,12.98,5.86,8.13,7.47,18.66,4.3,28.16l-238.5,715.51c-4.26,12.79-16.18,21.38-29.66,21.38h-238.5Z"/>
    <path d="M542.87,1707.02c-10.02,0-19.5-4.85-25.36-12.98-5.86-8.13-7.47-18.66-4.3-28.16l33.28-99.85c7.53-22.59,3.74-47.42-10.18-66.74s-36.28-30.76-60.1-30.76h-132.1c-10.02,0-19.5-4.85-25.36-12.98-5.86-8.13-7.46-18.66-4.3-28.16l238.5-715.51c4.26-12.79,16.18-21.38,29.66-21.38h238.5c10.02,0,19.5,4.85,25.36,12.98,5.86,8.13,7.46,18.66,4.3,28.16l-192.29,576.86c-7.53,22.59-3.74,47.42,10.18,66.74,13.92,19.32,36.28,30.76,60.1,30.76h370.61c10.02,0,19.5,4.85,25.36,12.98,5.86,8.13,7.47,18.66,4.3,28.16l-79.5,238.5c-4.26,12.79-16.18,21.38-29.66,21.38h-477.01Z"/>
  </g>
</svg>
